<svg width="2820" height="1072" viewBox="0 0 2820 1072" fill="none" xmlns="http://www.w3.org/2000/svg">
<path d="M1300.99 774.74H1299.48V830.405H1237.8V260.218H1299.48V512.966H1300.99C1331.33 461.814 1375.71 436.239 1434.13 436.239C1483.53 436.239 1522.14 453.54 1549.98 488.142C1578.06 522.494 1592.1 568.63 1592.1 626.552C1592.1 690.992 1576.43 742.645 1545.09 781.51C1513.74 820.124 1470.87 839.432 1416.46 839.432C1365.56 839.432 1327.07 817.868 1300.99 774.74ZM1299.48 619.406V673.19C1299.48 705.034 1309.77 732.114 1330.33 754.43C1351.14 776.495 1377.47 787.528 1409.31 787.528C1446.67 787.528 1475.88 773.236 1496.94 744.651C1518.26 716.067 1528.91 676.324 1528.91 625.423C1528.91 582.546 1519.01 548.947 1499.2 524.625C1479.39 500.303 1452.56 488.142 1418.71 488.142C1382.86 488.142 1354.02 500.679 1332.21 525.753C1310.39 550.577 1299.48 581.794 1299.48 619.406Z" fill="#FFB900"/>
<path d="M1752.32 830.405H1690.64V260.218H1752.32V830.405Z" fill="#FFB900"/>
<path d="M1908.79 347.476C1897.75 347.476 1888.35 343.715 1880.58 336.193C1872.81 328.67 1868.92 319.142 1868.92 307.608C1868.92 296.074 1872.81 286.546 1880.58 279.023C1888.35 271.25 1897.75 267.364 1908.79 267.364C1920.07 267.364 1929.6 271.25 1937.37 279.023C1945.4 286.546 1949.41 296.074 1949.41 307.608C1949.41 318.641 1945.4 328.043 1937.37 335.816C1929.6 343.589 1920.07 347.476 1908.79 347.476ZM1938.88 830.405H1877.19V445.265H1938.88V830.405Z" fill="#FFB900"/>
<path d="M2383.44 830.405H2321.76V610.755C2321.76 529.013 2291.92 488.142 2232.24 488.142C2201.4 488.142 2175.83 499.802 2155.52 523.121C2135.46 546.189 2125.43 575.4 2125.43 610.755V830.405H2063.75V445.265H2125.43V509.204H2126.93C2156.02 460.561 2198.14 436.239 2253.31 436.239C2295.43 436.239 2327.65 449.904 2349.97 477.235C2372.28 504.315 2383.44 543.556 2383.44 594.958V830.405Z" fill="#FFB900"/>
<path d="M2819.73 830.405H2733.23L2563.22 645.357H2561.72V830.405H2500.04V260.218H2561.72V621.662H2563.22L2724.95 445.265H2805.82L2627.16 631.065L2819.73 830.405Z" fill="#FFB900"/>
<path d="M244.643 1072L0.650879 900.962V0L246.145 75.2072V680.973L7.77093 893.466L589.54 587.387L428.251 514.433L319.099 277.752L858.288 442.981V706.479L244.643 1072Z" fill="#FFB900"/>
</svg>
